<?xml version="1.0" encoding="UTF-8" standalone="no"?>
<svg
   xmlns:dc="http://purl.org/dc/elements/1.1/"
   xmlns:cc="http://creativecommons.org/ns#"
   xmlns:rdf="http://www.w3.org/1999/02/22-rdf-syntax-ns#"
   xmlns:svg="http://www.w3.org/2000/svg"
   xmlns="http://www.w3.org/2000/svg"
   xmlns:sodipodi="http://sodipodi.sourceforge.net/DTD/sodipodi-0.dtd"
   xmlns:inkscape="http://www.inkscape.org/namespaces/inkscape"
   inkscape:version="1.0 (4035a4fb49, 2020-05-01)"
   sodipodi:docname="muffin.svg"
   viewBox="0 0 26.66667 26.66667"
   height="26.66667"
   width="26.66667"
   xml:space="preserve"
   id="svg2"
   version="1.1"><metadata
     id="metadata8"><rdf:RDF><cc:Work
         rdf:about=""><dc:format>image/svg+xml</dc:format><dc:type
           rdf:resource="http://purl.org/dc/dcmitype/StillImage" /><dc:title></dc:title></cc:Work></rdf:RDF></metadata><defs
     id="defs6"><clipPath
       id="clipPath26"
       clipPathUnits="userSpaceOnUse"><path
         id="path24"
         d="M 0,20 H 20 V 0 H 0 Z" /></clipPath></defs><sodipodi:namedview
     inkscape:current-layer="g10"
     inkscape:window-maximized="1"
     inkscape:window-y="27"
     inkscape:window-x="0"
     inkscape:cy="7.0565926"
     inkscape:cx="2.9787511"
     inkscape:zoom="16"
     showgrid="false"
     id="namedview4"
     inkscape:window-height="1016"
     inkscape:window-width="1920"
     inkscape:pageshadow="2"
     inkscape:pageopacity="0"
     guidetolerance="10"
     gridtolerance="10"
     objecttolerance="10"
     borderopacity="1"
     bordercolor="#666666"
     pagecolor="#ffffff" /><g
     transform="matrix(1.3333333,0,0,-1.3333333,0,26.666667)"
     inkscape:label="muffin"
     inkscape:groupmode="layer"
     id="g10"><g
       transform="matrix(1.1438695,0,0,1.1438695,-1.4180221,-1.7933568)"
       id="g58"><g
         id="g12"
         transform="translate(5.0365,8.292)"><path
           d="m 0,0 1.467,-5.014 7.512,0.076 1.163,4.441"
           style="fill:#bb8c38;fill-opacity:1;fill-rule:evenodd;stroke:#8a6d31;stroke-width:1;stroke-linecap:butt;stroke-linejoin:round;stroke-miterlimit:10;stroke-dasharray:none;stroke-opacity:1"
           id="path14" /></g><g
         id="g16"
         transform="translate(8.1437,7.4339)"><path
           d="M 0,0 -0.267,-4.142 M 2.211,-4.156 1.049,0 m 3.183,-4.097 0.782,3.772"
           style="fill:none;stroke:#8a6d31;stroke-width:0.667;stroke-linecap:butt;stroke-linejoin:round;stroke-miterlimit:10;stroke-dasharray:none;stroke-opacity:1"
           id="path18" /></g><g
         id="g20"><g
           id="g22"
           clip-path="url(#clipPath26)"><g
             id="g28"
             transform="translate(4.5989,13.5157)"><path
               d="M 0,0 C -0.61,3.413 3.623,5.147 5.644,2.649 7.188,4.441 9.8,3.659 10.259,0.972 13.157,2.191 15.232,-2.461 11.934,-3.7 13.192,-5.721 11.152,-7.627 9.836,-6.521 8.826,-7.665 7.148,-7.302 6.519,-5.892 5.699,-7.054 2.592,-7.493 1.658,-5.09 0.514,-6.177 -1.564,-6.272 -1.164,-3.717 -3.89,-3.316 -3.184,0.84 0,0"
               style="fill:#ddc87d;fill-opacity:1;fill-rule:evenodd;stroke:none"
               id="path30" /></g><g
             id="g32"
             transform="translate(4.5989,13.5157)"><path
               d="M 0,0 C -0.61,3.413 3.623,5.147 5.644,2.649 7.188,4.441 9.8,3.659 10.259,0.972 13.157,2.191 15.232,-2.461 11.934,-3.7 13.192,-5.721 11.152,-7.627 9.836,-6.521 8.826,-7.665 7.148,-7.302 6.519,-5.892 5.699,-7.054 2.592,-7.493 1.658,-5.09 0.514,-6.177 -1.564,-6.272 -1.164,-3.717 -3.89,-3.316 -3.184,0.84 0,0 Z"
               style="fill:none;stroke:#d2af46;stroke-width:1;stroke-linecap:butt;stroke-linejoin:miter;stroke-miterlimit:10;stroke-dasharray:none;stroke-opacity:1"
               id="path34" /></g><g
             id="g36"
             transform="translate(14.4836,12.0081)"><path
               d="M 0,0 C -0.382,0.235 -1.172,0.296 -1.268,-0.409 -1.363,-1.115 -0.477,-1.41 0,-1.048 0.476,-0.686 0.372,-0.229 0,0 M 1.725,1.678 C 1.325,1.812 0.778,1.478 0.887,0.896 1.001,0.285 1.725,0.191 1.992,0.438 2.259,0.686 2.35,1.469 1.725,1.678 m -8.693,-2.954 c -0.344,0 -0.801,-0.781 -0.344,-1.106 0.458,-0.324 1.106,-0.438 1.297,0.114 0.19,0.553 -0.42,0.992 -0.953,0.992 m 0.362,3.584 C -7.158,1.717 -7.712,1.946 -7.997,2.461 -8.283,2.976 -7.63,3.473 -6.948,3.567 -6.53,3.623 -6.053,2.899 -6.606,2.308"
               style="fill:#b98d3a;fill-opacity:1;fill-rule:evenodd;stroke:none"
               id="path38" /></g><g
             id="g40"
             transform="translate(12.5964,9.2357)"><path
               d="M 0,0 C -0.639,-0.239 -0.525,-1.316 0.218,-1.383 1.046,-1.458 1.372,-0.478 1.134,-0.144 0.895,0.19 0.555,0.208 0,0 M -0.219,5.023 C 0.17,4.85 1.02,5.499 0.734,6.09 0.449,6.681 -0.105,6.929 -0.543,6.452 -0.982,5.976 -0.562,5.175 -0.219,5.023 M -2.145,3.498 C -2.761,3.657 -3.346,3.276 -3.27,2.596 c 0.076,-0.68 1.106,-0.719 1.468,-0.357 0.363,0.363 0.248,1.106 -0.343,1.259 M -7.864,1.84 c -0.687,-0.057 -1.03,0.42 -0.915,0.972 0.114,0.553 1.185,0.784 1.468,0.439 0.171,-0.21 0.133,-1.354 -0.553,-1.411"
               style="fill:#da9361;fill-opacity:1;fill-rule:evenodd;stroke:none"
               id="path42" /></g></g></g></g></g></svg>
